# xmcd CD database file
#
# Track frame offsets:
#	150
#	19478
#	45140
#	74445
#	89800
#	107310
#	135075
#	154068
#	169468
#	191298
#	209018
#	236505
#	247005
#	264353
#	281085
#
# Disc length: 4071 seconds
#
# Revision: 2
# Processed by: cddbd v1.5.2PL0 Copyright (c) Steve Scherf et al.
# Submitted via: CDex 1.70beta3
#
DISCID=d10fe50f
DTITLE=横道坊主 - 情熱ライブ ! [CD2]
DYEAR=2003
DGENRE=Rock
TTITLE0=祈り
TTITLE1=Battle Boots
TTITLE2=風
TTITLE3=Hide-ハイド-
TTITLE4=チンピラ
TTITLE5=Alice
TTITLE6=がむしゃらのブルース
TTITLE7=激情
TTITLE8=クワガタ
TTITLE9=ミサイル
TTITLE10=情熱
TTITLE11=Dirty Market
TTITLE12=Trash Songs
TTITLE13=暴発ピストル
TTITLE14=Under The U.K
EXTD=YEAR: 2003
EXTT0=
EXTT1=
EXTT2=
EXTT3=
EXTT4=
EXTT5=
EXTT6=
EXTT7=
EXTT8=
EXTT9=
EXTT10=
EXTT11=
EXTT12=
EXTT13=
EXTT14=
PLAYORDER=
